<svg xmlns="http://www.w3.org/2000/svg" xml:space="preserve" viewBox="0 0 512 512">
  <path d="M376.309 88.836h107.385v49.406H376.309z" style="fill:#eab528"/>
  <path d="M382.561 23.818h107.385v49.406H382.561z" style="fill:#962229"/>
  <path d="M370.057 153.854h107.386v49.405H370.057z" style="fill:#188a96"/>
  <g style="opacity:.1">
    <path d="M358.043 88.836h107.386v49.406H358.043z" style="fill:#060001"/>
  </g>
  <g style="opacity:.1">
    <path d="M358.043 23.818h107.386v49.406H358.043z" style="fill:#060001"/>
  </g>
  <g style="opacity:.1">
    <path d="M358.043 153.854h107.386v49.405H358.043z" style="fill:#060001"/>
  </g>
  <path d="M47.456 0h399.057v511.972H47.456z" style="fill:#edcba0"/>
  <path d="M5.911 0h138.333v511.972H5.911z" style="fill:#884860"/>
  <path d="M0 0h11.823v511.972H0z" style="fill:#eaa277"/>
  <path d="M47.444 80.523 87.69 54.556H47.444V41.753h65.57v11.42l-40.156 25.97h40.156v12.8h-65.57v-11.42zM71.479 140.932c-4.358 0-7.996-.354-10.912-1.057-2.917-.707-5.511-2.165-7.783-4.376-1.592-1.533-2.978-3.514-4.145-5.94-1.167-2.426-1.75-5.418-1.75-8.977 0-3.563.583-6.541 1.75-8.936 1.167-2.392 2.553-4.358 4.145-5.892 2.334-2.148 4.942-3.593 7.831-4.327 2.882-.738 6.506-1.105 10.864-1.105 4.358 0 7.968.367 10.823 1.105 2.855.734 5.442 2.179 7.784 4.327 1.592 1.534 2.971 3.501 4.138 5.892 1.167 2.395 1.75 5.373 1.75 8.936 0 3.558-.583 6.551-1.75 8.977s-2.546 4.407-4.138 5.94c-2.341 2.148-4.928 3.593-7.784 4.328-2.855.738-6.465 1.105-10.823 1.105zm0-11.969c2.457 0 4.695-.155 6.726-.464 2.025-.305 3.652-1.074 4.88-2.299 1.407-1.414 2.113-3.288 2.113-5.617 0-2.276-.706-4.115-2.113-5.528-1.229-1.229-2.855-1.994-4.88-2.303-2.031-.305-4.269-.46-6.726-.46-2.519 0-4.791.155-6.815.46-2.025.309-3.652 1.075-4.88 2.303-1.413 1.413-2.12 3.253-2.12 5.528 0 2.33.707 4.203 2.12 5.617 1.229 1.225 2.855 1.994 4.88 2.299 2.024.309 4.296.464 6.815.464zM47.444 163.402c0-2.453.398-4.557 1.194-6.307.803-1.75 1.846-3.191 3.137-4.327a12.077 12.077 0 0 1 4.371-2.488 16.336 16.336 0 0 1 5.017-.783h23.761v-5.065h9.114v5.065h14.186v11.973H94.039v8.473h-9.114v-8.473h-23.02c-2.889 0-4.33 1.38-4.33 4.142v4.331h-10.13v-6.541zM67.704 186.24c-3.13 0-5.697.888-7.687 2.673-1.997 1.778-2.999 4.386-2.999 7.828 0 2.639.384 4.726 1.153 6.259.769 1.534 1.888 3.071 3.363 4.605l-7.09 7.275a39.906 39.906 0 0 1-3.274-3.683 19.366 19.366 0 0 1-2.388-4.008 20.025 20.025 0 0 1-1.427-4.742c-.309-1.719-.467-3.651-.467-5.799 0-2.824.37-5.573 1.112-8.242a17.124 17.124 0 0 1 3.912-7.09c1.874-2.059 4.385-3.716 7.549-4.976 3.164-1.256 7.166-1.888 12.018-1.888 3.926 0 7.412.508 10.452 1.52 3.04 1.013 5.601 2.44 7.686 4.283a17.97 17.97 0 0 1 4.743 6.585c1.078 2.546 1.613 5.388 1.613 8.517 0 3.315-.569 6.277-1.701 8.888-1.14 2.608-2.732 4.801-4.791 6.582-2.059 1.781-4.509 3.133-7.364 4.053-2.855.923-5.971 1.382-9.348 1.382h-5.065V186.24zm8.195 18.235a27.963 27.963 0 0 0 2.718-.278c.769-.123 1.578-.398 2.444-.827 1.407-.676 2.587-1.675 3.541-2.992.954-1.321 1.427-2.996 1.427-5.021s-.474-3.699-1.427-5.02c-.954-1.318-2.134-2.316-3.541-2.993-.865-.429-1.675-.707-2.444-.827a27.652 27.652 0 0 0-2.718-.278v18.236zM81.06 262.767c-.68 1.29-1.263 2.269-1.751 2.948a17.888 17.888 0 0 1-1.75 2.024c-1.537 1.411-3.226 2.44-5.065 3.085-1.846.645-3.932.968-6.266.968-2.882 0-5.477-.46-7.783-1.383-2.3-.919-4.262-2.255-5.889-4.004-1.626-1.75-2.889-3.867-3.775-6.355-.892-2.484-1.338-5.264-1.338-8.335v-27.443h65.57v26.337c0 3.072-.432 5.865-1.29 8.384-.865 2.515-2.073 4.65-3.638 6.4s-3.452 3.098-5.662 4.049c-2.217.954-4.701 1.428-7.46 1.428-6.264-.001-10.897-2.702-13.903-8.103zm-22.195-12.34c0 2.639.72 4.725 2.162 6.263 1.441 1.533 3.425 2.302 5.944 2.302 2.512 0 4.475-.769 5.889-2.302 1.414-1.538 2.12-3.624 2.12-6.263v-13.352H58.865v13.352zm27.624-.83c0 2.639.68 4.712 2.025 6.218 1.352 1.503 3.191 2.255 5.525 2.255 2.333 0 4.18-.752 5.532-2.255 1.345-1.507 2.024-3.579 2.024-6.218v-12.522H86.489v12.522zM71.479 318.572c-4.358 0-7.996-.353-10.912-1.057-2.917-.707-5.511-2.165-7.783-4.376-1.592-1.534-2.978-3.514-4.145-5.94-1.167-2.426-1.75-5.418-1.75-8.977 0-3.562.583-6.54 1.75-8.935 1.167-2.392 2.553-4.359 4.145-5.892 2.334-2.148 4.942-3.593 7.831-4.327 2.882-.738 6.506-1.105 10.864-1.105 4.358 0 7.968.368 10.823 1.105 2.855.734 5.442 2.179 7.784 4.327 1.592 1.533 2.971 3.5 4.138 5.892 1.167 2.395 1.75 5.374 1.75 8.935 0 3.559-.583 6.551-1.75 8.977s-2.546 4.406-4.138 5.94c-2.341 2.148-4.928 3.593-7.784 4.327-2.855.738-6.465 1.106-10.823 1.106zm0-11.97c2.457 0 4.695-.154 6.726-.463 2.025-.305 3.652-1.074 4.88-2.299 1.407-1.414 2.113-3.288 2.113-5.618 0-2.275-.706-4.114-2.113-5.528-1.229-1.229-2.855-1.994-4.88-2.302-2.031-.306-4.269-.46-6.726-.46-2.519 0-4.791.154-6.815.46-2.025.309-3.652 1.074-4.88 2.302-1.413 1.414-2.12 3.253-2.12 5.528 0 2.33.707 4.204 2.12 5.618 1.229 1.225 2.855 1.994 4.88 2.299 2.024.309 4.296.463 6.815.463zM71.479 364.616c-4.358 0-7.996-.354-10.912-1.057-2.917-.707-5.511-2.165-7.783-4.375-1.592-1.534-2.978-3.514-4.145-5.941-1.167-2.426-1.75-5.419-1.75-8.977 0-3.562.583-6.541 1.75-8.936 1.167-2.391 2.553-4.358 4.145-5.892 2.334-2.148 4.942-3.593 7.831-4.327 2.882-.738 6.506-1.105 10.864-1.105 4.358 0 7.968.367 10.823 1.105 2.855.734 5.442 2.179 7.784 4.327 1.592 1.534 2.971 3.501 4.138 5.892 1.167 2.395 1.75 5.374 1.75 8.936 0 3.558-.583 6.551-1.75 8.977-1.167 2.427-2.546 4.406-4.138 5.941-2.341 2.148-4.928 3.592-7.784 4.327-2.855.739-6.465 1.105-10.823 1.105zm0-11.969c2.457 0 4.695-.155 6.726-.463 2.025-.306 3.652-1.075 4.88-2.299 1.407-1.414 2.113-3.288 2.113-5.617 0-2.275-.706-4.114-2.113-5.528-1.229-1.229-2.855-1.994-4.88-2.303-2.031-.305-4.269-.46-6.726-.46-2.519 0-4.791.155-6.815.46-2.025.309-3.652 1.075-4.88 2.303-1.413 1.414-2.12 3.253-2.12 5.528 0 2.33.707 4.203 2.12 5.617 1.229 1.225 2.855 1.994 4.88 2.299 2.024.308 4.296.463 6.815.463zM47.444 400.902l19.985-11.788-5.71-5.065H47.444v-11.973h65.57v11.973H75.81l19.615 15.929v14.461l-19.34-17.13-28.64 18.417v-14.824z" style="fill:#fff"/>
  <path d="M47.444 80.523 87.69 54.556H47.444V41.753h65.57v11.42l-40.156 25.97h40.156v12.8h-65.57v-11.42zM71.479 140.932c-4.358 0-7.996-.354-10.912-1.057-2.917-.707-5.511-2.165-7.783-4.376-1.592-1.533-2.978-3.514-4.145-5.94-1.167-2.426-1.75-5.418-1.75-8.977 0-3.563.583-6.541 1.75-8.936 1.167-2.392 2.553-4.358 4.145-5.892 2.334-2.148 4.942-3.593 7.831-4.327 2.882-.738 6.506-1.105 10.864-1.105 4.358 0 7.968.367 10.823 1.105 2.855.734 5.442 2.179 7.784 4.327 1.592 1.534 2.971 3.501 4.138 5.892 1.167 2.395 1.75 5.373 1.75 8.936 0 3.558-.583 6.551-1.75 8.977s-2.546 4.407-4.138 5.94c-2.341 2.148-4.928 3.593-7.784 4.328-2.855.738-6.465 1.105-10.823 1.105zm0-11.969c2.457 0 4.695-.155 6.726-.464 2.025-.305 3.652-1.074 4.88-2.299 1.407-1.414 2.113-3.288 2.113-5.617 0-2.276-.706-4.115-2.113-5.528-1.229-1.229-2.855-1.994-4.88-2.303-2.031-.305-4.269-.46-6.726-.46-2.519 0-4.791.155-6.815.46-2.025.309-3.652 1.075-4.88 2.303-1.413 1.413-2.12 3.253-2.12 5.528 0 2.33.707 4.203 2.12 5.617 1.229 1.225 2.855 1.994 4.88 2.299 2.024.309 4.296.464 6.815.464zM47.444 163.402c0-2.453.398-4.557 1.194-6.307.803-1.75 1.846-3.191 3.137-4.327a12.077 12.077 0 0 1 4.371-2.488 16.336 16.336 0 0 1 5.017-.783h23.761v-5.065h9.114v5.065h14.186v11.973H94.039v8.473h-9.114v-8.473h-23.02c-2.889 0-4.33 1.38-4.33 4.142v4.331h-10.13v-6.541zM67.704 186.24c-3.13 0-5.697.888-7.687 2.673-1.997 1.778-2.999 4.386-2.999 7.828 0 2.639.384 4.726 1.153 6.259.769 1.534 1.888 3.071 3.363 4.605l-7.09 7.275a39.906 39.906 0 0 1-3.274-3.683 19.366 19.366 0 0 1-2.388-4.008 20.025 20.025 0 0 1-1.427-4.742c-.309-1.719-.467-3.651-.467-5.799 0-2.824.37-5.573 1.112-8.242a17.124 17.124 0 0 1 3.912-7.09c1.874-2.059 4.385-3.716 7.549-4.976 3.164-1.256 7.166-1.888 12.018-1.888 3.926 0 7.412.508 10.452 1.52 3.04 1.013 5.601 2.44 7.686 4.283a17.97 17.97 0 0 1 4.743 6.585c1.078 2.546 1.613 5.388 1.613 8.517 0 3.315-.569 6.277-1.701 8.888-1.14 2.608-2.732 4.801-4.791 6.582-2.059 1.781-4.509 3.133-7.364 4.053-2.855.923-5.971 1.382-9.348 1.382h-5.065V186.24zm8.195 18.235a27.963 27.963 0 0 0 2.718-.278c.769-.123 1.578-.398 2.444-.827 1.407-.676 2.587-1.675 3.541-2.992.954-1.321 1.427-2.996 1.427-5.021s-.474-3.699-1.427-5.02c-.954-1.318-2.134-2.316-3.541-2.993-.865-.429-1.675-.707-2.444-.827a27.652 27.652 0 0 0-2.718-.278v18.236zM81.06 262.767c-.68 1.29-1.263 2.269-1.751 2.948a17.888 17.888 0 0 1-1.75 2.024c-1.537 1.411-3.226 2.44-5.065 3.085-1.846.645-3.932.968-6.266.968-2.882 0-5.477-.46-7.783-1.383-2.3-.919-4.262-2.255-5.889-4.004-1.626-1.75-2.889-3.867-3.775-6.355-.892-2.484-1.338-5.264-1.338-8.335v-27.443h65.57v26.337c0 3.072-.432 5.865-1.29 8.384-.865 2.515-2.073 4.65-3.638 6.4s-3.452 3.098-5.662 4.049c-2.217.954-4.701 1.428-7.46 1.428-6.264-.001-10.897-2.702-13.903-8.103zm-22.195-12.34c0 2.639.72 4.725 2.162 6.263 1.441 1.533 3.425 2.302 5.944 2.302 2.512 0 4.475-.769 5.889-2.302 1.414-1.538 2.12-3.624 2.12-6.263v-13.352H58.865v13.352zm27.624-.83c0 2.639.68 4.712 2.025 6.218 1.352 1.503 3.191 2.255 5.525 2.255 2.333 0 4.18-.752 5.532-2.255 1.345-1.507 2.024-3.579 2.024-6.218v-12.522H86.489v12.522zM71.479 318.572c-4.358 0-7.996-.353-10.912-1.057-2.917-.707-5.511-2.165-7.783-4.376-1.592-1.534-2.978-3.514-4.145-5.94-1.167-2.426-1.75-5.418-1.75-8.977 0-3.562.583-6.54 1.75-8.935 1.167-2.392 2.553-4.359 4.145-5.892 2.334-2.148 4.942-3.593 7.831-4.327 2.882-.738 6.506-1.105 10.864-1.105 4.358 0 7.968.368 10.823 1.105 2.855.734 5.442 2.179 7.784 4.327 1.592 1.533 2.971 3.5 4.138 5.892 1.167 2.395 1.75 5.374 1.75 8.935 0 3.559-.583 6.551-1.75 8.977s-2.546 4.406-4.138 5.94c-2.341 2.148-4.928 3.593-7.784 4.327-2.855.738-6.465 1.106-10.823 1.106zm0-11.97c2.457 0 4.695-.154 6.726-.463 2.025-.305 3.652-1.074 4.88-2.299 1.407-1.414 2.113-3.288 2.113-5.618 0-2.275-.706-4.114-2.113-5.528-1.229-1.229-2.855-1.994-4.88-2.302-2.031-.306-4.269-.46-6.726-.46-2.519 0-4.791.154-6.815.46-2.025.309-3.652 1.074-4.88 2.302-1.413 1.414-2.12 3.253-2.12 5.528 0 2.33.707 4.204 2.12 5.618 1.229 1.225 2.855 1.994 4.88 2.299 2.024.309 4.296.463 6.815.463zM71.479 364.616c-4.358 0-7.996-.354-10.912-1.057-2.917-.707-5.511-2.165-7.783-4.375-1.592-1.534-2.978-3.514-4.145-5.941-1.167-2.426-1.75-5.419-1.75-8.977 0-3.562.583-6.541 1.75-8.936 1.167-2.391 2.553-4.358 4.145-5.892 2.334-2.148 4.942-3.593 7.831-4.327 2.882-.738 6.506-1.105 10.864-1.105 4.358 0 7.968.367 10.823 1.105 2.855.734 5.442 2.179 7.784 4.327 1.592 1.534 2.971 3.501 4.138 5.892 1.167 2.395 1.75 5.374 1.75 8.936 0 3.558-.583 6.551-1.75 8.977-1.167 2.427-2.546 4.406-4.138 5.941-2.341 2.148-4.928 3.592-7.784 4.327-2.855.739-6.465 1.105-10.823 1.105zm0-11.969c2.457 0 4.695-.155 6.726-.463 2.025-.306 3.652-1.075 4.88-2.299 1.407-1.414 2.113-3.288 2.113-5.617 0-2.275-.706-4.114-2.113-5.528-1.229-1.229-2.855-1.994-4.88-2.303-2.031-.305-4.269-.46-6.726-.46-2.519 0-4.791.155-6.815.46-2.025.309-3.652 1.075-4.88 2.303-1.413 1.414-2.12 3.253-2.12 5.528 0 2.33.707 4.203 2.12 5.617 1.229 1.225 2.855 1.994 4.88 2.299 2.024.308 4.296.463 6.815.463zM47.444 400.902l19.985-11.788-5.71-5.065H47.444v-11.973h65.57v11.973H75.81l19.615 15.929v14.461l-19.34-17.13-28.64 18.417v-14.824z" style="fill:#fff"/>
  <path d="M144.244 248.204h168.255v23.254H144.244zM185.905 332.329h225.793v3.283H185.905zM185.905 393.885h225.793v3.283H185.905zM185.905 455.442h225.793v3.283H185.905z" style="fill:#565657"/>
  <path d="M489.946 88.851v49.406h-37.178v15.602h30.923v49.406h-30.923V512H71.506v-38.583l47.508-47.508 4.779-4.709 22.56-22.56 4.146-4.146 5.904-5.904 52.99-52.99 3.303-3.303 3.092-3.092 18.484-18.413 62.618-62.619 67.397-67.467 12.018-12.018 14.829-14.829 65.008-65.008z" style="opacity:.05;fill:#231815"/>
</svg>
